<svg xmlns="http://www.w3.org/2000/svg" viewBox="0 0 632.38 88.77"><defs><style>.cls-1{fill:#aafff9;}</style></defs><g id="Laag_2" data-name="Laag 2"><g id="Laag_1-2" data-name="Laag 1"><path class="cls-1" d="M629.08,88.77l3.3-5.71L545.55,32.93l-2.11-1.44,0,0L493,1a3.54,3.54,0,0,0-2.26-.81,3.4,3.4,0,0,0-3.49,3.31,3.32,3.32,0,0,0,2.28,3.1l50,30.21h0l.29.2-.1.17L542,38.51,606.15,82.2h0l6.69.17h0l5.4.14Z"/><path class="cls-1" d="M84.25,5.47h0l.43-.38h0L89.5.89l1-.89h-.82l-5.48.1H80.37L8.62,62.91h0L.38,70.11a.84.84,0,0,0-.31,1,.78.78,0,0,0,.86.28H5.68a14.77,14.77,0,0,0,5.42-2.05,13.42,13.42,0,0,0,4.63-3.91Z"/><path class="cls-1" d="M198.15,66.25,240,4.58h0l1.86-2.75h0l.59-.87h0l.26-.33H198.05L198,.55l-.07.08H183.6v0L143.17,2.06a22.33,22.33,0,0,0-2.54.09l-.89,0v.06A50.81,50.81,0,0,0,125,6.7c-6.35,2.93-11.56,6.61-14.68,10.05L78.79,44.32l0,0-.47.5-.22.19,0,0L58.16,65.92h0l-3.09,3h6.21v0l29.77.52h0l29.24.51h0l18.89.33v.06h3.71l5.68.1h0l45.74.8v0l1.74,0v-.44l0,0Zm-123.1-12ZM70,60h-.36l.36-.37Z"/><polygon class="cls-1" points="367.42 74.36 360.25 1.6 360.25 0.63 260.28 0.63 259.83 0.33 259.63 0.63 259.62 0.63 259.62 0.65 214.29 67.49 214.29 67.49 211.49 71.59 214.28 71.64 214.28 71.71 220.32 71.81 220.32 71.84 225.85 71.84 225.85 71.86 259.18 72.45 367.57 76.23 367.58 75.96 367.42 74.36 367.42 74.36"/><polygon class="cls-1" points="525.33 38.54 525.33 38.58 504.13 26.35 504.13 26.36 482.04 15.52 481.94 15.73 482.03 15.52 459.31 5.71 459.31 5.71 418.82 2.88 418.82 2.88 375.79 1.38 375.64 5.54 375.18 5.63 388.51 76.89 388.56 76.88 388.55 77.16 449.44 79.28 449.44 79.29 475.05 80.18 475.05 80.19 475.4 80.19 475.45 80.19 475.45 80.19 547.2 81.45 547.59 59.34 552.29 57.05 525.33 38.54"/></g></g></svg>