<svg xmlns="http://www.w3.org/2000/svg" viewBox="0 0 934.06 257.29"><defs><style>.cls-1{opacity:0.75;}.cls-2,.cls-7{fill:#004225;}.cls-3{fill:#165193;}.cls-4{fill:none;}.cls-4,.cls-5,.cls-6,.cls-7{stroke:#000;stroke-miterlimit:10;}.cls-5{fill:#f7931e;}.cls-5,.cls-6,.cls-7{stroke-width:0.25px;}.cls-6{fill:#002d25;}</style></defs><g id="Laag_2" data-name="Laag 2"><g id="Laag_1-2" data-name="Laag 1"><rect class="cls-1" x="74.34" y="63.98" width="523.11" height="45.66" transform="translate(2.34 -8.6) rotate(1.47)"/><path d="M634.49,93.56l-3-2.12,0,0L608.53,75l.17-.25L566.78,46.17l-.07.1-43.19-25c0-.79-4.31-3.14-9.92-5.35-5.76-2.27-10.66-3.52-11-2.8-3.23-1-5.37-1.45-5.58-1,0,0,0,0,0,0L450.48,9v0l-.71,0-2.6-.18v.09L393.05,6.92v0H229.63v0L169.24,9v.16l0-.11-9.22,3-.07-.13-.63.36h0l-8.42,4.87.07.11-39.72,34.8.6.69-.74-.71L87.49,76.85h0l-2.29,2.41,0,0L83,81.48h-.12v.12l-.88.88,0,0-.07.07h0a.24.24,0,0,0,0,.14c0,.35.65.63,1.44.63a2.93,2.93,0,0,0,.84-.12h6.73v0L303.57,87h0l162,5.66v0l50.83,1.78v.07l18.2.32h0L600.25,96h29.34l.22.16.11-.16h4.57v-2.4h0Zm-112-71.87-.28-.15.35,0ZM115.08,56.56l.06.06,38.83-34,0,0,9.09-5.25v0l8-2.64v0l4.31-1.19,53.25-1.86H280l-44.77,66h0l-1.93,4.38h0l0,.55L92.6,80.22ZM248.75,82.94l44.41-65.52h0l3.25-4.8h0l.64-.94h95.32l5.55.19,7.44,75.73L303.62,84V83.9ZM601,93l-67.56-1.18h0l-15.39-.27v0l-52.37-1.83v.07l-39.31-1.38-14.19-76,37.74,1.32L497.44,17v0c7,2.77,14.83,6.14,23.08,10,7.7,3.55,14.89,7.09,21.21,10.41L564,50.22l-.1.16L605.84,79h0l19.54,14Z"/><polygon points="625.67 93.19 606.32 79.41 606.36 79.39 583.22 63.15 583.99 74.09 583.67 92.44 583.69 92.43 583.67 92.46 603.6 92.81 603.6 92.81 625.67 93.19"/><path class="cls-2" d="M47.36,80.28c-4.73,2.51-8.15,3-9.23,1.68a15.33,15.33,0,0,0-2.63,4c-1.56,4,2.61,4.45,9.31.9s13.41-9.7,15-13.75a2.5,2.5,0,0,0-.08-2.58A44.74,44.74,0,0,1,47.36,80.28Z"/><rect class="cls-2" x="267.92" y="95.09" width="404.92" height="156.04"/><rect class="cls-2" x="58.39" y="85.97" width="385.4" height="63.42" transform="translate(3.1 -6.41) rotate(1.47)"/><rect class="cls-2" x="407.78" y="93.41" width="265.22" height="63.42" transform="translate(3.39 -13.84) rotate(1.47)"/><path class="cls-2" d="M107.66,238.43c.36-9.94,1-19.94,3.34-29.62a74.48,74.48,0,0,1,10-22.88,79.84,79.84,0,0,1,38.28-30.67,88.08,88.08,0,0,1,26.29-5.58c9.21-.53,18.94.06,27.76,2.89A54.41,54.41,0,0,1,226,158.86c4,2.54,7.85,5.27,11.55,8.19a61.41,61.41,0,0,1,10.06,9.74,76.71,76.71,0,0,1,7.6,11.9A125.82,125.82,0,0,1,270,242.55c.1,2.31.14,4.63.11,6.94a1.5,1.5,0,0,0,3,0A129.53,129.53,0,0,0,260.75,193c-4.11-8.71-9.07-17.22-16.15-23.86a104.75,104.75,0,0,0-11.31-8.94,92.91,92.91,0,0,0-12.56-7.8c-8.71-4.3-18.64-5.66-28.28-5.84a92.19,92.19,0,0,0-27.67,3.7,83.8,83.8,0,0,0-42.7,29,78.21,78.21,0,0,0-12,22.11c-3.29,9.48-4.48,19.55-5.07,29.52q-.21,3.78-.34,7.57c-.07,1.93,2.93,1.93,3,0Z"/><rect class="cls-2" x="201.19" y="146.02" width="115.61" height="29.94" transform="translate(119.98 -110.43) rotate(31.01)"/><rect class="cls-2" x="203.29" y="154.3" width="115.61" height="28.84" transform="translate(281.85 -141.45) rotate(60.96)"/><rect class="cls-2" x="262.2" y="208.53" width="14.14" height="6.9" transform="translate(384.65 -110.71) rotate(71.46)"/><rect class="cls-2" x="102.57" y="142.27" width="70.57" height="22.42" transform="translate(335.09 213.99) rotate(148.99)"/><rect class="cls-2" x="48.35" y="159.7" width="115.61" height="28.84" transform="translate(306.67 136.92) rotate(110.86)"/><rect class="cls-2" x="6.1" y="168.4" width="106.75" height="33.25"/><rect class="cls-2" x="28.17" y="201.65" width="79.61" height="33.25"/><rect class="cls-2" x="7.49" y="205.05" width="26.82" height="16.63" transform="translate(234.26 192.46) rotate(90)"/><polygon class="cls-2" points="4.61 200.21 18.03 174.74 0 171.79 4.61 200.21"/><ellipse class="cls-2" cx="6.33" cy="171.82" rx="6.22" ry="3.42"/><ellipse class="cls-2" cx="8.38" cy="201.65" rx="3.42" ry="6.22" transform="translate(-68.52 15.05) rotate(-20.02)"/><rect class="cls-2" x="3.29" y="203.36" width="26.82" height="16.63" transform="translate(228.37 194.98) rotate(90)"/><ellipse class="cls-2" cx="17.53" cy="221.71" rx="6.71" ry="11.93" transform="translate(-204.11 203.21) rotate(-80.71)"/><rect class="cls-2" x="161.27" y="141.92" width="20.51" height="7.29" transform="translate(374.66 242.21) rotate(165.12)"/><rect class="cls-2" x="108.46" y="176.13" width="20.51" height="7.29" transform="translate(329.78 222.95) rotate(135)"/><ellipse class="cls-2" cx="23.78" cy="228.98" rx="4.6" ry="14.32" transform="translate(-196.31 161.47) rotate(-67.02)"/><rect class="cls-2" x="29.12" y="228.08" width="76.8" height="9.76" transform="translate(12.33 -3.23) rotate(3.01)"/><rect class="cls-2" x="11.94" y="148.03" width="89.9" height="28.84" transform="translate(113.79 324.9) rotate(180)"/><rect class="cls-2" x="55.36" y="114.64" width="49.46" height="40.63" transform="translate(134.67 282.08) rotate(-169.67)"/><rect class="cls-2" x="37.12" y="81.74" width="24.83" height="29.61" transform="translate(99.07 193.09) rotate(180)"/><ellipse class="cls-2" cx="30.8" cy="95.22" rx="15.04" ry="4.75" transform="translate(-67.8 78.05) rotate(-62.19)"/><ellipse class="cls-2" cx="27.71" cy="96.93" rx="14.95" ry="3.42" transform="translate(-68.22 65.94) rotate(-56.14)"/><rect class="cls-2" x="28.91" y="89.84" width="14.22" height="21.51" transform="translate(72.04 201.19) rotate(180)"/><rect class="cls-2" x="19.94" y="105.23" width="14.22" height="6.12" transform="translate(54.09 216.58) rotate(180)"/><ellipse class="cls-2" cx="20.27" cy="108.23" rx="3.13" ry="1.46" transform="translate(-89.83 110.3) rotate(-80.47)"/><path class="cls-2" d="M51.41,146c-2,2.54-4.3,3.62-5.93,3.11A6.19,6.19,0,0,0,46,152c1.3,2.7,4.69,2,7.57-1.63s4.15-8.71,2.84-11.41a2.71,2.71,0,0,0-1.65-1.47A15.23,15.23,0,0,1,51.41,146Z"/><path class="cls-2" d="M56.34,112.07c2.37,2.22,3.27,4.57,2.63,6.16a6.37,6.37,0,0,0,3-.26c2.8-1.09,2.33-4.53-1-7.68s-8.36-4.81-11.15-3.72a2.69,2.69,0,0,0-1.6,1.53A15.23,15.23,0,0,1,56.34,112.07Z"/><rect class="cls-2" x="34.79" y="42.13" width="121.78" height="20.45" transform="translate(-10.8 75.98) rotate(-41.2)"/><rect class="cls-2" x="44.91" y="60.32" width="69.9" height="20.45" transform="translate(-26.29 79.79) rotate(-46.43)"/><rect class="cls-2" x="683.04" y="110.99" width="207.7" height="42.81" transform="translate(31.46 -124.6) rotate(9.24)"/><path class="cls-2" d="M673.29,249.5c-1.23-20.77,1.06-42.78,12.33-60.77,10.09-16.12,27.19-28,45-34.11a75,75,0,0,1,48.88.25,74.19,74.19,0,0,1,38.36,30.22c11.15,17.76,13.59,39.19,14.38,59.7q.15,3.92.24,7.83c0,1.93,3,1.94,3,0-.53-21.69-1.9-44.24-12.07-63.87a76.33,76.33,0,0,0-37.07-34.39,78.63,78.63,0,0,0-50.61-4.4,93,93,0,0,0-26.12,11.5,86,86,0,0,0-22.29,19.67C674,198.18,669.74,220.26,670,241.48c0,2.67.14,5.35.3,8,.11,1.92,3.11,1.93,3,0Z"/><rect class="cls-2" x="768.94" y="148.5" width="121.81" height="29.94" transform="translate(202.86 -404.21) rotate(31.01)"/><rect class="cls-2" x="803.15" y="171.3" width="64.17" height="28.84" transform="translate(592.12 -634.65) rotate(60.96)"/><rect class="cls-2" x="803.54" y="165.41" width="14.14" height="6.9" transform="translate(418.16 -560.24) rotate(49.94)"/><rect class="cls-2" x="670.76" y="143.16" width="70.57" height="22.42" transform="translate(1390.69 -77.13) rotate(148.99)"/><rect class="cls-2" x="642.74" y="147.7" width="83.08" height="28.84" transform="translate(1230.53 -280.75) rotate(127.64)"/><rect class="cls-2" x="729.45" y="142.8" width="20.51" height="7.29" transform="translate(1492.22 98.06) rotate(165.12)"/><rect class="cls-2" x="622.48" y="183.12" width="83.08" height="28.84" transform="translate(1083.02 -354.17) rotate(110.65)"/><rect class="cls-2" x="636.9" y="122.21" width="83.08" height="28.84" transform="translate(815.07 -541.8) rotate(90)"/><rect class="cls-2" x="812.52" y="205.85" width="64.17" height="28.84" transform="translate(949.44 -646.27) rotate(82.28)"/><rect class="cls-2" x="853.04" y="206.96" width="64.17" height="39.93" transform="translate(-22.46 120.95) rotate(-7.72)"/><rect class="cls-2" x="856.37" y="201.64" width="76.74" height="9.75"/><rect class="cls-2" x="846.65" y="168.86" width="41.27" height="34.59"/><rect class="cls-2" x="880.85" y="181.33" width="52.98" height="3.91"/><rect class="cls-2" x="869.18" y="177.81" width="52.98" height="3.91"/><rect class="cls-2" x="862.06" y="163.65" width="15.69" height="10.44"/><ellipse class="cls-2" cx="922.46" cy="179.27" rx="3.39" ry="11.95" transform="translate(518.65 1027.8) rotate(-75.55)"/><rect class="cls-2" x="883.91" y="168.09" width="33.11" height="10.61"/><path class="cls-2" d="M891.17,199.05c-2.64-2.1-3.81-4.69-3.35-6.74a5.86,5.86,0,0,0-2.93,1c-2.68,2-1.82,6,1.92,8.94s9,3.77,11.62,1.79a3.65,3.65,0,0,0,1.43-2.2A12.62,12.62,0,0,1,891.17,199.05Z"/><path class="cls-2" d="M885.9,192.08c1.35-4.61,3.15-7.11,4.65-7a14.19,14.19,0,0,0-.89-4.21c-1.56-3.55-4.38-1.13-6.31,5.4s-2.21,14.7-.65,18.25c.46,1,1,1.52,1.66,1.57A40.85,40.85,0,0,1,885.9,192.08Z"/><path class="cls-2" d="M915.55,166.9a55,55,0,0,0-6.81-30.68"/><path class="cls-3" d="M917.05,166.9a56.93,56.93,0,0,0-7-31.43c-.94-1.69-3.53-.18-2.59,1.51a54.07,54.07,0,0,1,6.6,29.92c-.13,1.93,2.87,1.92,3,0Z"/><rect class="cls-2" x="888.56" y="133.66" width="20.19" height="4.43"/><ellipse class="cls-2" cx="899.76" cy="129.83" rx="3.39" ry="11.95" transform="translate(298.07 811.3) rotate(-56.77)"/><rect class="cls-2" x="889.22" y="127.84" width="11.06" height="7.23"/><path class="cls-2" d="M893.23,140.19c2.51-2.24,5.27-2.95,7.21-2.15A5.92,5.92,0,0,0,900,135c-1.49-3-5.58-2.8-9.14.38s-5.24,8.17-3.75,11.14a3.63,3.63,0,0,0,1.93,1.78A12.65,12.65,0,0,1,893.23,140.19Z"/><ellipse class="cls-2" cx="925.42" cy="224.56" rx="19.39" ry="4.81" transform="translate(405.69 1022.51) rotate(-70.56)"/><rect class="cls-2" x="903.01" y="212.56" width="28.02" height="17.44" transform="translate(473.88 1054.06) rotate(-75.55)"/><ellipse class="cls-2" cx="896.28" cy="244.84" rx="24.36" ry="4.81" transform="translate(-24.76 122.61) rotate(-7.72)"/><rect class="cls-2" x="832.51" y="249.32" width="64.71" height="4.09" transform="translate(-23.94 105.76) rotate(-6.9)"/><ellipse class="cls-2" cx="790.99" cy="119.37" rx="15.76" ry="105.8" transform="translate(529.23 875.27) rotate(-79.48)"/><rect class="cls-2" x="633.22" y="93.56" width="80.34" height="12.84" transform="translate(2.79 -17.26) rotate(1.47)"/><ellipse class="cls-2" cx="827.57" cy="113.54" rx="4.67" ry="74.14" transform="translate(571.14 908.53) rotate(-79.94)"/><rect class="cls-2" x="914.22" y="163.01" width="2.8" height="7.77"/><rect class="cls-2" x="883.69" y="124.22" width="11.06" height="7.23"/><ellipse class="cls-2" cx="134.72" cy="5.59" rx="9.03" ry="2.34" transform="translate(0.65 19.96) rotate(-8.49)"/><rect class="cls-2" x="122.04" y="7.81" width="13.59" height="2.75"/><ellipse class="cls-2" cx="126.07" cy="7.5" rx="9.15" ry="2.03" transform="translate(8.46 53.52) rotate(-24.77)"/><rect class="cls-2" x="137.33" y="2.96" width="13.66" height="15"/><rect class="cls-2" x="211.34" width="181.41" height="6.41"/><rect class="cls-2" x="176.7" y="0.3" width="34.59" height="6.41" transform="translate(-0.03 3.39) rotate(-1)"/><rect class="cls-2" x="150.27" y="1.48" width="83.02" height="6.41" transform="translate(-0.05 6.7) rotate(-2)"/><ellipse class="cls-2" cx="171.05" cy="1.66" rx="9.27" ry="1.07" transform="translate(0.05 5.97) rotate(-2)"/><ellipse class="cls-2" cx="162.19" cy="2.12" rx="9.27" ry="1.07"/><ellipse class="cls-2" cx="153.8" cy="2.96" rx="9.27" ry="1.07" transform="translate(0.47 15.36) rotate(-5.73)"/><ellipse class="cls-2" cx="150.02" cy="2.9" rx="14.77" ry="1.22" transform="translate(-0.01 5.24) rotate(-2)"/><ellipse class="cls-2" cx="167.39" cy="1.79" rx="9.27" ry="1.07"/><rect class="cls-2" x="564.71" y="52.83" width="36.98" height="4.09" transform="translate(132.17 -318.9) rotate(34.27)"/><rect class="cls-2" x="392.68" y="0.65" width="34.71" height="6.41" transform="translate(0.38 -14.31) rotate(2)"/><rect class="cls-2" x="426.94" y="4.17" width="70.11" height="5.38" transform="translate(1.36 -29.27) rotate(3.63)"/><rect class="cls-2" x="427.08" y="5.88" width="15.93" height="2.53" transform="translate(1.33 -27.56) rotate(3.63)"/><ellipse class="cls-2" cx="441.88" cy="4.23" rx="2.11" ry="28.98" transform="translate(396.11 443.75) rotate(-84.6)"/><ellipse class="cls-2" cx="477.94" cy="6.6" rx="2.5" ry="41.81" transform="translate(426.43 481.8) rotate(-84.6)"/><rect class="cls-2" x="515.13" y="30.69" width="65.05" height="4.09" transform="translate(89.74 -269.44) rotate(30)"/><rect class="cls-2" x="567.67" y="71.45" width="84.67" height="4.09" transform="translate(156.84 -341.42) rotate(35.61)"/><rect class="cls-2" x="570.43" y="74.29" width="90.76" height="4.09" transform="matrix(0.83, 0.56, -0.56, 0.83, 149.92, -333.54)"/><rect class="cls-2" x="495.48" y="9.42" width="27.76" height="5.05" transform="translate(17.28 -120.13) rotate(13.68)"/><rect class="cls-2" x="506.29" y="14.57" width="19.28" height="2.53" transform="translate(64.15 -233.83) rotate(27.17)"/><rect class="cls-2" x="516.18" y="8.6" width="7.24" height="9.17" transform="translate(301.66 485.18) rotate(-66.65)"/><path class="cls-2" d="M526.1,17.09c-1.54-2.36-1.81-4.55-.94-5.79a5.37,5.37,0,0,0-2.55-.35c-2.59.4-2.92,3.44-.73,6.79s6.06,5.74,8.66,5.34a2.38,2.38,0,0,0,1.66-1A13,13,0,0,1,526.1,17.09Z"/><rect class="cls-2" x="143.4" y="6.61" width="19.58" height="8.69" transform="translate(23.25 92.83) rotate(-36.31)"/><rect class="cls-2" x="148.42" y="8.95" width="20.87" height="3.94" transform="matrix(0.87, -0.5, 0.5, 0.87, 15.82, 80.89)"/><rect class="cls-2" x="153.95" y="6.32" width="20.87" height="3.94" transform="translate(3.71 43.99) rotate(-15.41)"/><rect class="cls-2" x="886.37" y="167.74" width="0.25" height="0.38" transform="translate(608.93 1026.43) rotate(-82.81)"/><rect class="cls-2" x="886.29" y="167.99" width="1.76" height="0.09"/><rect class="cls-2" x="886.56" y="167.85" width="0.94" height="0.17"/><rect class="cls-2" x="519.02" y="30.23" width="58.66" height="2.57" transform="translate(95.31 -279.02) rotate(31.14)"/><ellipse class="cls-2" cx="513.15" cy="9.11" rx="1.74" ry="16.75" transform="translate(445.29 517.84) rotate(-83.42)"/><line class="cls-4" x1="12.69" y1="167.08" x2="136" y2="168.49"/><line class="cls-4" x1="269.06" y1="230.08" x2="671.57" y2="234.67"/><line class="cls-4" x1="809.29" y1="172.45" x2="917.02" y2="173.68"/><line class="cls-4" x1="420.28" y1="206.02" x2="418.31" y2="90.04"/><line class="cls-4" x1="415.26" y1="231.75" x2="420.28" y2="206.02"/><path class="cls-4" d="M229.38,145.56c-.47-23.74-.5-46.95,7.49-60.53"/><path class="cls-4" d="M277,230.08q-.63-56.46-46.87-85.35"/><line class="cls-4" x1="645.44" y1="223.55" x2="646.43" y2="123.33"/><path class="cls-4" d="M646.43,123.33Q642.8,105.68,629.92,96"/><path class="cls-4" d="M638.24,234.29q6.39-5.37,7.2-10.74"/><path class="cls-2" d="M589.06,71.1a19.89,19.89,0,0,0-8.56,18.42A4.46,4.46,0,0,0,582,92.86a5,5,0,0,0,2.29.64L601,95.36a12.66,12.66,0,0,0-2.2,5.8A3.91,3.91,0,0,0,599,103c.68,1.74,3,2,4.87,1.94l13.4-.29a2.45,2.45,0,0,0,1.84-.55,1.77,1.77,0,0,0,.09-1.94,10.9,10.9,0,0,0-1.22-1.66A9.21,9.21,0,0,1,616.48,95a14.19,14.19,0,0,0-.25-4.65,9.05,9.05,0,0,0-1.46-2.51c-3.55-4.71-8-8.62-12.51-12.48a24.29,24.29,0,0,0-6.08-4.27,8.23,8.23,0,0,0-7.2,0"/><path d="M588.68,70.45a20.74,20.74,0,0,0-9,18.32c.11,1.55.36,3.3,1.56,4.41s3.42,1.11,5.06,1.29L601,96.11,600.39,95c-1.4,2.05-2.67,5-2.31,7.5.33,2.25,2.47,3,4.48,3.19,3.12.24,6.35-.08,9.48-.14l5-.11a3.33,3.33,0,0,0,2.74-.93,2.59,2.59,0,0,0,.09-2.7c-.7-1.4-1.86-2.35-2.28-3.93-.72-2.73.33-5.69-.82-8.32s-3.31-4.71-5.15-6.64c-2.14-2.25-4.45-4.34-6.78-6.38-4.3-3.76-10-9.34-16.2-6.1-.86.45-.1,1.75.76,1.3,4.84-2.56,9.62,1.73,13,4.7A90.65,90.65,0,0,1,612.87,86.6a21,21,0,0,1,2.19,3,7.09,7.09,0,0,1,.72,3.9,13.82,13.82,0,0,0,.77,6.09,21.52,21.52,0,0,0,1.78,2.65c.43.69.51,1.42-.51,1.68a10.12,10.12,0,0,1-2.06.08l-8.44.18c-1.37,0-2.74.1-4.11.07a4.86,4.86,0,0,1-3-.77c-1-.89-.61-2.58-.32-3.73a12.55,12.55,0,0,1,1.82-4c.36-.52-.13-1.07-.65-1.13l-12-1.34-3.2-.35a11.91,11.91,0,0,1-2.85-.43c-1.68-.67-1.76-2.92-1.81-4.47a19.28,19.28,0,0,1,8.3-16.28c.79-.54,0-1.84-.76-1.29Z"/><rect class="cls-4" x="113.26" y="97.24" width="42.18" height="31.16" rx="10.15"/><rect class="cls-5" x="654.74" y="127.27" width="13.65" height="8.36" rx="3.44"/><rect class="cls-6" x="433.38" y="117.31" width="23.04" height="13.82" rx="5.85"/><rect class="cls-7" x="425.43" y="113.81" width="36.57" height="9.14" rx="2.82"/><rect class="cls-6" x="253.25" y="113.22" width="23.04" height="13.82" rx="5.85"/><rect class="cls-7" x="245.3" y="109.72" width="36.57" height="9.14" rx="2.82"/></g></g></svg>