<svg xmlns="http://www.w3.org/2000/svg" viewBox="0 0 699 136.21"><defs><style>.cls-1{fill:#333;}</style></defs><g id="Laag_2" data-name="Laag 2"><g id="Laag_1-2" data-name="Laag 1"><path d="M68.1,15A53.11,53.11,0,1,1,15,68.1,53.17,53.17,0,0,1,68.1,15m0-15a68.11,68.11,0,1,0,68.11,68.1A68.1,68.1,0,0,0,68.1,0Z"/><path d="M630.9,15a53.11,53.11,0,1,1-53.11,53.1A53.16,53.16,0,0,1,630.9,15m0-15A68.11,68.11,0,1,0,699,68.1,68.11,68.11,0,0,0,630.9,0Z"/><circle class="cls-1" cx="68.1" cy="68.1" r="24.2"/><path class="cls-1" d="M68.29,29.66A38.45,38.45,0,1,1,29.85,68.1,38.48,38.48,0,0,1,68.29,29.66m0-15A53.45,53.45,0,1,0,121.73,68.1,53.44,53.44,0,0,0,68.29,14.66Z"/><path class="cls-1" d="M94.21,36.09A5.84,5.84,0,0,0,92.83,35a5.9,5.9,0,0,0-1.31-.53l0-.08-7-3.53a6,6,0,0,0-2.38-2,5.89,5.89,0,0,0-1.68-.49,25.88,25.88,0,0,1-4.23,9,25.48,25.48,0,0,1-7.64,7.25,7.08,7.08,0,0,0,3.71,5.32,6.83,6.83,0,0,0,5.78-.21,6.49,6.49,0,0,0,9.8,5.51,25.41,25.41,0,0,1,1.42-10.44A26,26,0,0,1,94.21,36.09Z"/><path class="cls-1" d="M46.09,34.85a5.73,5.73,0,0,0-1.45,1,5.8,5.8,0,0,0-.9,1.09l-.06-.06L38.2,42.45a6.1,6.1,0,0,0-2.67,1.66,5.89,5.89,0,0,0-1,1.46,25.76,25.76,0,0,1,7.3,6.74,25.28,25.28,0,0,1,4.6,9.48,7.05,7.05,0,0,0,6.2-1.94,6.79,6.79,0,0,0,1.54-5.56,6.49,6.49,0,0,0,8.22-7.68A25.5,25.5,0,0,1,52.9,42.1,25.82,25.82,0,0,1,46.09,34.85Z"/><path class="cls-1" d="M28.65,79a5.6,5.6,0,0,0,.5,1.68,6.26,6.26,0,0,0,.78,1.19l-.08,0,3.68,6.9a5.75,5.75,0,0,0,1.88,4.4A26,26,0,0,1,44,88.25,25.34,25.34,0,0,1,54.46,86.7a7.07,7.07,0,0,0,0-6.49,6.82,6.82,0,0,0-4.85-3.14,6.49,6.49,0,0,0-4.86-10.14,25.54,25.54,0,0,1-7.16,7.73A25.93,25.93,0,0,1,28.65,79Z"/><path class="cls-1" d="M65.71,109.75a5.69,5.69,0,0,0,1.75.07,5.85,5.85,0,0,0,1.37-.34v.08l7.73-1.23a5.94,5.94,0,0,0,3.12.26,5.8,5.8,0,0,0,1.65-.59,25.89,25.89,0,0,1-1.85-9.77,25.16,25.16,0,0,1,1.94-10.35,7.05,7.05,0,0,0-6.14-2.13,6.82,6.82,0,0,0-4.55,3.55,7.08,7.08,0,0,0-6-2.59,7.11,7.11,0,0,0-5.21,3.88,25.55,25.55,0,0,1,5,9.29A26.19,26.19,0,0,1,65.71,109.75Z"/><path class="cls-1" d="M107.29,82.39a5.67,5.67,0,0,0,.57-1.65,5.22,5.22,0,0,0,.06-1.42H108l1-7.75a6,6,0,0,0,1.14-2.92,5.7,5.7,0,0,0-.1-1.75,26,26,0,0,1-9.89-1,25.4,25.4,0,0,1-9.36-4.83A7.07,7.07,0,0,0,87,66.33a6.82,6.82,0,0,0,2.11,5.38,6.48,6.48,0,0,0-2,11.07,25.51,25.51,0,0,1,10.32-2.1A26.12,26.12,0,0,1,107.29,82.39Z"/><circle class="cls-1" cx="631.11" cy="68.13" r="24.2"/><path class="cls-1" d="M631.36,29.65a38.55,38.55,0,1,1-5.14.35,38.53,38.53,0,0,1,5.14-.35h0m0-15a53.45,53.45,0,1,0,52.91,46.4,53.68,53.68,0,0,0-52.91-46.4Z"/><path class="cls-1" d="M652.76,33a5.57,5.57,0,0,0-1.51-.89,5.41,5.41,0,0,0-1.37-.35l0-.08L642.53,29a6,6,0,0,0-2.63-1.7,5.72,5.72,0,0,0-1.73-.26,25.93,25.93,0,0,1-3,9.47,25.45,25.45,0,0,1-6.62,8.2,7.07,7.07,0,0,0,4.39,4.78,6.81,6.81,0,0,0,5.69-1,6.49,6.49,0,0,0,10.45,4.17,25.52,25.52,0,0,1,0-10.53A26.17,26.17,0,0,1,652.76,33Z"/><path class="cls-1" d="M604.89,38.07a6.27,6.27,0,0,0-1.3,1.17,5.42,5.42,0,0,0-.75,1.21l-.07-.06-4.69,6.26a5.88,5.88,0,0,0-2.42,2,5.76,5.76,0,0,0-.78,1.57A25.79,25.79,0,0,1,603,55.94a25.43,25.43,0,0,1,5.81,8.78A7.1,7.1,0,0,0,614.71,62a6.77,6.77,0,0,0,.79-5.72A7.1,7.1,0,0,0,621.59,54a7.08,7.08,0,0,0,1-6.41,25.35,25.35,0,0,1-10-3.22A26,26,0,0,1,604.89,38.07Z"/><path class="cls-1" d="M593.43,84.12a5.85,5.85,0,0,0,.72,1.59,5.36,5.36,0,0,0,.93,1.08l-.07,0,4.55,6.35a6.12,6.12,0,0,0,1.18,2.91A5.83,5.83,0,0,0,602,97.31a26,26,0,0,1,7.9-6A25.5,25.5,0,0,1,620,88.37a7.06,7.06,0,0,0-.85-6.44A6.74,6.74,0,0,0,614,79.46,6.49,6.49,0,0,0,607.81,70a25.4,25.4,0,0,1-6.08,8.61A25.93,25.93,0,0,1,593.43,84.12Z"/><path class="cls-1" d="M634.23,109.73a6,6,0,0,0,1.74-.16,5.79,5.79,0,0,0,1.32-.53l0,.09,7.49-2.24a6.08,6.08,0,0,0,3.14-.16,5.59,5.59,0,0,0,1.55-.81,26.12,26.12,0,0,1-3.13-9.43A25.46,25.46,0,0,1,646.92,86a7.08,7.08,0,0,0-6.36-1.3,6.81,6.81,0,0,0-4,4.12,6.5,6.5,0,0,0-10.91,2.76,25.16,25.16,0,0,1,6.15,8.55A25.88,25.88,0,0,1,634.23,109.73Z"/><path class="cls-1" d="M671.84,77.12a5.54,5.54,0,0,0,.34-1.72,6.11,6.11,0,0,0-.12-1.41h.09V66.17a6,6,0,0,0,.75-3,5.83,5.83,0,0,0-.33-1.72,26.22,26.22,0,0,1-9.94.29,25.25,25.25,0,0,1-9.91-3.55,7,7,0,0,0-3.07,5.72,6.76,6.76,0,0,0,2.79,5.05A6.49,6.49,0,0,0,652,80.16a25.38,25.38,0,0,1,10-3.44A25.8,25.8,0,0,1,671.84,77.12Z"/></g></g></svg>